<mxfile host="app.diagrams.net" modified="2022-06-15T13:27:10.319Z" agent="5.0 (Windows NT 10.0; Win64; x64) AppleWebKit/537.36 (KHTML, like Gecko) Chrome/102.0.0.0 Safari/537.36" etag="V78ae4pZY_HU__v_oQ6p" version="20.0.1" type="github">
  <diagram id="C5RBs43oDa-KdzZeNtuy" name="Page-1">
    <mxGraphModel dx="1422" dy="697" grid="1" gridSize="10" guides="1" tooltips="1" connect="1" arrows="1" fold="1" page="1" pageScale="1" pageWidth="827" pageHeight="1169" math="0" shadow="0">
      <root>
        <mxCell id="WIyWlLk6GJQsqaUBKTNV-0" />
        <mxCell id="WIyWlLk6GJQsqaUBKTNV-1" parent="WIyWlLk6GJQsqaUBKTNV-0" />
        <mxCell id="WIyWlLk6GJQsqaUBKTNV-2" value="" style="rounded=0;html=1;jettySize=auto;orthogonalLoop=1;fontSize=11;endArrow=block;endFill=0;endSize=8;strokeWidth=1;shadow=0;labelBackgroundColor=none;edgeStyle=orthogonalEdgeStyle;" parent="WIyWlLk6GJQsqaUBKTNV-1" source="WIyWlLk6GJQsqaUBKTNV-3" target="WIyWlLk6GJQsqaUBKTNV-6" edge="1">
          <mxGeometry relative="1" as="geometry" />
        </mxCell>
        <mxCell id="WIyWlLk6GJQsqaUBKTNV-3" value="User Interface" style="rounded=1;whiteSpace=wrap;html=1;fontSize=12;glass=0;strokeWidth=1;shadow=0;" parent="WIyWlLk6GJQsqaUBKTNV-1" vertex="1">
          <mxGeometry x="160" y="75" width="120" height="40" as="geometry" />
        </mxCell>
        <mxCell id="B3ZakvVIittk1RLcnI67-19" value="" style="edgeStyle=orthogonalEdgeStyle;rounded=0;orthogonalLoop=1;jettySize=auto;html=1;fontSize=12;" edge="1" parent="WIyWlLk6GJQsqaUBKTNV-1" source="WIyWlLk6GJQsqaUBKTNV-6" target="B3ZakvVIittk1RLcnI67-18">
          <mxGeometry relative="1" as="geometry" />
        </mxCell>
        <mxCell id="B3ZakvVIittk1RLcnI67-28" style="edgeStyle=orthogonalEdgeStyle;rounded=0;orthogonalLoop=1;jettySize=auto;html=1;entryX=0.5;entryY=0;entryDx=0;entryDy=0;fontSize=12;" edge="1" parent="WIyWlLk6GJQsqaUBKTNV-1" source="WIyWlLk6GJQsqaUBKTNV-6" target="B3ZakvVIittk1RLcnI67-26">
          <mxGeometry relative="1" as="geometry" />
        </mxCell>
        <mxCell id="WIyWlLk6GJQsqaUBKTNV-6" value="Is Individual / client &lt;b&gt;new&lt;/b&gt;?" style="rhombus;whiteSpace=wrap;html=1;shadow=0;fontFamily=Helvetica;fontSize=12;align=center;strokeWidth=1;spacing=6;spacingTop=-4;" parent="WIyWlLk6GJQsqaUBKTNV-1" vertex="1">
          <mxGeometry x="30" y="150" width="100" height="120" as="geometry" />
        </mxCell>
        <mxCell id="B3ZakvVIittk1RLcnI67-39" value="" style="edgeStyle=orthogonalEdgeStyle;rounded=0;orthogonalLoop=1;jettySize=auto;html=1;fontSize=12;" edge="1" parent="WIyWlLk6GJQsqaUBKTNV-1" source="WIyWlLk6GJQsqaUBKTNV-10" target="B3ZakvVIittk1RLcnI67-37">
          <mxGeometry relative="1" as="geometry" />
        </mxCell>
        <mxCell id="B3ZakvVIittk1RLcnI67-45" value="" style="edgeStyle=orthogonalEdgeStyle;rounded=0;orthogonalLoop=1;jettySize=auto;html=1;fontSize=12;" edge="1" parent="WIyWlLk6GJQsqaUBKTNV-1" source="WIyWlLk6GJQsqaUBKTNV-10" target="WIyWlLk6GJQsqaUBKTNV-12">
          <mxGeometry relative="1" as="geometry" />
        </mxCell>
        <mxCell id="WIyWlLk6GJQsqaUBKTNV-10" value="Issue &lt;br&gt;Resolved" style="rhombus;whiteSpace=wrap;html=1;shadow=0;fontFamily=Helvetica;fontSize=12;align=center;strokeWidth=1;spacing=6;spacingTop=-4;" parent="WIyWlLk6GJQsqaUBKTNV-1" vertex="1">
          <mxGeometry x="374" y="320" width="100" height="100" as="geometry" />
        </mxCell>
        <mxCell id="B3ZakvVIittk1RLcnI67-47" style="edgeStyle=orthogonalEdgeStyle;rounded=0;orthogonalLoop=1;jettySize=auto;html=1;entryX=0.5;entryY=1;entryDx=0;entryDy=0;fontSize=12;" edge="1" parent="WIyWlLk6GJQsqaUBKTNV-1" source="WIyWlLk6GJQsqaUBKTNV-12" target="B3ZakvVIittk1RLcnI67-26">
          <mxGeometry relative="1" as="geometry" />
        </mxCell>
        <mxCell id="WIyWlLk6GJQsqaUBKTNV-12" value="Choose another action (wait)" style="rounded=1;whiteSpace=wrap;html=1;fontSize=12;glass=0;strokeWidth=1;shadow=0;" parent="WIyWlLk6GJQsqaUBKTNV-1" vertex="1">
          <mxGeometry x="364" y="480" width="120" height="40" as="geometry" />
        </mxCell>
        <mxCell id="B3ZakvVIittk1RLcnI67-3" value="" style="edgeStyle=orthogonalEdgeStyle;rounded=0;orthogonalLoop=1;jettySize=auto;html=1;fontSize=10;" edge="1" parent="WIyWlLk6GJQsqaUBKTNV-1" source="B3ZakvVIittk1RLcnI67-0" target="B3ZakvVIittk1RLcnI67-2">
          <mxGeometry relative="1" as="geometry" />
        </mxCell>
        <object label="Start" id="B3ZakvVIittk1RLcnI67-0">
          <mxCell style="html=1;dashed=0;whitespace=wrap;shape=mxgraph.dfd.start" vertex="1" parent="WIyWlLk6GJQsqaUBKTNV-1">
            <mxGeometry x="680" y="80" width="80" height="30" as="geometry" />
          </mxCell>
        </object>
        <object label="End" id="B3ZakvVIittk1RLcnI67-1">
          <mxCell style="html=1;dashed=0;whitespace=wrap;shape=mxgraph.dfd.start" vertex="1" parent="WIyWlLk6GJQsqaUBKTNV-1">
            <mxGeometry x="580" y="565" width="80" height="30" as="geometry" />
          </mxCell>
        </object>
        <mxCell id="B3ZakvVIittk1RLcnI67-5" value="" style="edgeStyle=orthogonalEdgeStyle;rounded=0;orthogonalLoop=1;jettySize=auto;html=1;fontSize=12;" edge="1" parent="WIyWlLk6GJQsqaUBKTNV-1" source="B3ZakvVIittk1RLcnI67-2" target="B3ZakvVIittk1RLcnI67-4">
          <mxGeometry relative="1" as="geometry" />
        </mxCell>
        <mxCell id="B3ZakvVIittk1RLcnI67-9" value="" style="edgeStyle=orthogonalEdgeStyle;rounded=0;orthogonalLoop=1;jettySize=auto;html=1;fontSize=12;" edge="1" parent="WIyWlLk6GJQsqaUBKTNV-1" source="B3ZakvVIittk1RLcnI67-2" target="B3ZakvVIittk1RLcnI67-6">
          <mxGeometry relative="1" as="geometry" />
        </mxCell>
        <mxCell id="B3ZakvVIittk1RLcnI67-2" value="Do you have login details?" style="rhombus;whiteSpace=wrap;html=1;fontSize=10;" vertex="1" parent="WIyWlLk6GJQsqaUBKTNV-1">
          <mxGeometry x="520" y="30" width="110" height="130" as="geometry" />
        </mxCell>
        <mxCell id="B3ZakvVIittk1RLcnI67-10" style="edgeStyle=orthogonalEdgeStyle;rounded=0;orthogonalLoop=1;jettySize=auto;html=1;entryX=0.5;entryY=1;entryDx=0;entryDy=0;fontSize=12;" edge="1" parent="WIyWlLk6GJQsqaUBKTNV-1" source="B3ZakvVIittk1RLcnI67-4" target="B3ZakvVIittk1RLcnI67-6">
          <mxGeometry relative="1" as="geometry" />
        </mxCell>
        <mxCell id="B3ZakvVIittk1RLcnI67-4" value="&lt;font style=&quot;font-size: 12px;&quot;&gt;Get login details&lt;/font&gt;" style="shape=parallelogram;perimeter=parallelogramPerimeter;whiteSpace=wrap;html=1;fixedSize=1;fontSize=10;" vertex="1" parent="WIyWlLk6GJQsqaUBKTNV-1">
          <mxGeometry x="515" y="230" width="120" height="60" as="geometry" />
        </mxCell>
        <mxCell id="B3ZakvVIittk1RLcnI67-14" value="" style="edgeStyle=orthogonalEdgeStyle;rounded=0;orthogonalLoop=1;jettySize=auto;html=1;fontSize=12;" edge="1" parent="WIyWlLk6GJQsqaUBKTNV-1" source="B3ZakvVIittk1RLcnI67-6" target="WIyWlLk6GJQsqaUBKTNV-3">
          <mxGeometry relative="1" as="geometry" />
        </mxCell>
        <mxCell id="B3ZakvVIittk1RLcnI67-6" value="&lt;font style=&quot;font-size: 12px;&quot;&gt;User login&lt;/font&gt;" style="shape=parallelogram;perimeter=parallelogramPerimeter;whiteSpace=wrap;html=1;fixedSize=1;fontSize=10;" vertex="1" parent="WIyWlLk6GJQsqaUBKTNV-1">
          <mxGeometry x="340" y="65" width="120" height="60" as="geometry" />
        </mxCell>
        <mxCell id="B3ZakvVIittk1RLcnI67-15" value="Yes" style="text;html=1;align=center;verticalAlign=middle;resizable=0;points=[];autosize=1;strokeColor=none;fillColor=none;fontSize=12;" vertex="1" parent="WIyWlLk6GJQsqaUBKTNV-1">
          <mxGeometry x="470" y="75" width="40" height="20" as="geometry" />
        </mxCell>
        <mxCell id="B3ZakvVIittk1RLcnI67-16" value="No" style="text;html=1;align=center;verticalAlign=middle;resizable=0;points=[];autosize=1;strokeColor=none;fillColor=none;fontSize=12;" vertex="1" parent="WIyWlLk6GJQsqaUBKTNV-1">
          <mxGeometry x="570" y="180" width="30" height="20" as="geometry" />
        </mxCell>
        <mxCell id="B3ZakvVIittk1RLcnI67-25" value="" style="edgeStyle=orthogonalEdgeStyle;rounded=0;orthogonalLoop=1;jettySize=auto;html=1;fontSize=12;" edge="1" parent="WIyWlLk6GJQsqaUBKTNV-1" source="B3ZakvVIittk1RLcnI67-18" target="B3ZakvVIittk1RLcnI67-23">
          <mxGeometry relative="1" as="geometry" />
        </mxCell>
        <mxCell id="B3ZakvVIittk1RLcnI67-18" value="Register (CRF)" style="shape=parallelogram;html=1;strokeWidth=2;perimeter=parallelogramPerimeter;whiteSpace=wrap;rounded=1;arcSize=12;size=0.23;fontSize=12;" vertex="1" parent="WIyWlLk6GJQsqaUBKTNV-1">
          <mxGeometry x="20" y="320" width="120" height="60" as="geometry" />
        </mxCell>
        <mxCell id="B3ZakvVIittk1RLcnI67-20" value="Yes" style="text;html=1;align=center;verticalAlign=middle;resizable=0;points=[];autosize=1;strokeColor=none;fillColor=none;fontSize=12;" vertex="1" parent="WIyWlLk6GJQsqaUBKTNV-1">
          <mxGeometry x="70" y="280" width="40" height="20" as="geometry" />
        </mxCell>
        <mxCell id="B3ZakvVIittk1RLcnI67-22" value="&lt;b&gt;CRF &lt;/b&gt;- Complaint Registration Form&lt;br&gt;&lt;br&gt;&lt;b&gt;GRF &lt;/b&gt;- Grievance Resolution Form" style="text;html=1;align=left;verticalAlign=middle;resizable=0;points=[];autosize=1;strokeColor=none;fillColor=none;fontSize=12;" vertex="1" parent="WIyWlLk6GJQsqaUBKTNV-1">
          <mxGeometry x="80" y="565" width="200" height="50" as="geometry" />
        </mxCell>
        <mxCell id="B3ZakvVIittk1RLcnI67-23" value="&lt;br&gt;Cloud Database" style="strokeWidth=2;html=1;shape=mxgraph.flowchart.database;whiteSpace=wrap;fontSize=12;" vertex="1" parent="WIyWlLk6GJQsqaUBKTNV-1">
          <mxGeometry x="25" y="450" width="110" height="80" as="geometry" />
        </mxCell>
        <mxCell id="B3ZakvVIittk1RLcnI67-24" value="Store &lt;br&gt;individual &lt;br&gt;data" style="text;html=1;align=center;verticalAlign=middle;resizable=0;points=[];autosize=1;strokeColor=none;fillColor=none;fontSize=12;" vertex="1" parent="WIyWlLk6GJQsqaUBKTNV-1">
          <mxGeometry y="390" width="70" height="50" as="geometry" />
        </mxCell>
        <mxCell id="B3ZakvVIittk1RLcnI67-32" style="edgeStyle=orthogonalEdgeStyle;rounded=0;orthogonalLoop=1;jettySize=auto;html=1;entryX=1;entryY=0.5;entryDx=0;entryDy=0;entryPerimeter=0;fontSize=12;" edge="1" parent="WIyWlLk6GJQsqaUBKTNV-1" source="B3ZakvVIittk1RLcnI67-26" target="B3ZakvVIittk1RLcnI67-23">
          <mxGeometry relative="1" as="geometry" />
        </mxCell>
        <mxCell id="B3ZakvVIittk1RLcnI67-36" value="" style="edgeStyle=orthogonalEdgeStyle;rounded=0;orthogonalLoop=1;jettySize=auto;html=1;fontSize=12;" edge="1" parent="WIyWlLk6GJQsqaUBKTNV-1" source="B3ZakvVIittk1RLcnI67-26" target="WIyWlLk6GJQsqaUBKTNV-10">
          <mxGeometry relative="1" as="geometry" />
        </mxCell>
        <mxCell id="B3ZakvVIittk1RLcnI67-26" value="Check issue &lt;br&gt;status" style="shape=parallelogram;html=1;strokeWidth=2;perimeter=parallelogramPerimeter;whiteSpace=wrap;rounded=1;arcSize=12;size=0.23;fontSize=12;" vertex="1" parent="WIyWlLk6GJQsqaUBKTNV-1">
          <mxGeometry x="220" y="320" width="120" height="60" as="geometry" />
        </mxCell>
        <mxCell id="B3ZakvVIittk1RLcnI67-29" value="No" style="text;html=1;align=center;verticalAlign=middle;resizable=0;points=[];autosize=1;strokeColor=none;fillColor=none;fontSize=12;" vertex="1" parent="WIyWlLk6GJQsqaUBKTNV-1">
          <mxGeometry x="180" y="220" width="30" height="20" as="geometry" />
        </mxCell>
        <mxCell id="B3ZakvVIittk1RLcnI67-33" value="Retrieve &lt;br&gt;Individual &lt;br&gt;details" style="text;html=1;align=center;verticalAlign=middle;resizable=0;points=[];autosize=1;strokeColor=none;fillColor=none;fontSize=12;" vertex="1" parent="WIyWlLk6GJQsqaUBKTNV-1">
          <mxGeometry x="170" y="390" width="70" height="50" as="geometry" />
        </mxCell>
        <mxCell id="B3ZakvVIittk1RLcnI67-43" value="" style="edgeStyle=orthogonalEdgeStyle;rounded=0;orthogonalLoop=1;jettySize=auto;html=1;fontSize=12;" edge="1" parent="WIyWlLk6GJQsqaUBKTNV-1" source="B3ZakvVIittk1RLcnI67-37" target="B3ZakvVIittk1RLcnI67-42">
          <mxGeometry relative="1" as="geometry" />
        </mxCell>
        <mxCell id="B3ZakvVIittk1RLcnI67-37" value="Fill (GRF)" style="shape=parallelogram;html=1;strokeWidth=2;perimeter=parallelogramPerimeter;whiteSpace=wrap;rounded=1;arcSize=12;size=0.23;fontSize=12;" vertex="1" parent="WIyWlLk6GJQsqaUBKTNV-1">
          <mxGeometry x="560" y="340" width="120" height="60" as="geometry" />
        </mxCell>
        <mxCell id="B3ZakvVIittk1RLcnI67-40" value="Yes" style="text;html=1;align=center;verticalAlign=middle;resizable=0;points=[];autosize=1;strokeColor=none;fillColor=none;fontSize=12;" vertex="1" parent="WIyWlLk6GJQsqaUBKTNV-1">
          <mxGeometry x="500" y="370" width="40" height="20" as="geometry" />
        </mxCell>
        <mxCell id="B3ZakvVIittk1RLcnI67-44" value="" style="edgeStyle=orthogonalEdgeStyle;rounded=0;orthogonalLoop=1;jettySize=auto;html=1;fontSize=12;" edge="1" parent="WIyWlLk6GJQsqaUBKTNV-1" source="B3ZakvVIittk1RLcnI67-42" target="B3ZakvVIittk1RLcnI67-1">
          <mxGeometry relative="1" as="geometry" />
        </mxCell>
        <mxCell id="B3ZakvVIittk1RLcnI67-42" value="Close Case" style="shape=parallelogram;html=1;strokeWidth=2;perimeter=parallelogramPerimeter;whiteSpace=wrap;rounded=1;arcSize=12;size=0.23;fontSize=12;" vertex="1" parent="WIyWlLk6GJQsqaUBKTNV-1">
          <mxGeometry x="560" y="440" width="120" height="60" as="geometry" />
        </mxCell>
        <mxCell id="B3ZakvVIittk1RLcnI67-46" value="No" style="text;html=1;align=center;verticalAlign=middle;resizable=0;points=[];autosize=1;strokeColor=none;fillColor=none;fontSize=12;" vertex="1" parent="WIyWlLk6GJQsqaUBKTNV-1">
          <mxGeometry x="435" y="440" width="30" height="20" as="geometry" />
        </mxCell>
        <mxCell id="B3ZakvVIittk1RLcnI67-48" value="&lt;b&gt;&lt;font style=&quot;font-size: 14px;&quot;&gt;&lt;u&gt;KILIFI ROAD REPORTS MANAGEMENT SYSTEM&lt;/u&gt;&lt;/font&gt;&lt;/b&gt;" style="text;html=1;align=center;verticalAlign=middle;resizable=0;points=[];autosize=1;strokeColor=none;fillColor=none;fontSize=12;" vertex="1" parent="WIyWlLk6GJQsqaUBKTNV-1">
          <mxGeometry x="205" y="10" width="340" height="20" as="geometry" />
        </mxCell>
      </root>
    </mxGraphModel>
  </diagram>
</mxfile>
